<svg width="500" height="500" viewBox="0 0 500 500" fill="none" xmlns="http://www.w3.org/2000/svg">
<path d="M169.255 112.982C148.305 131.797 131.37 152.702 120.895 177.789C110.42 200.785 104.135 228.136 104.135 255.314C104.135 284.581 110.42 311.759 122.99 336.845C133.465 359.841 152.495 378.83 175.54 391.374C198.585 406.008 225.82 412.279 259.34 412.279C290.94 412.279 320.27 406.008 343.315 391.374C368.455 378.83 387.485 359.841 400.055 336.845C414.72 311.759 421.005 284.581 421.005 255.314C421.005 230.227 416.815 207.056 408.435 186.151C400.055 165.245 387.485 146.43 370.55 127.615L404.245 98.3475C444.05 140.159 465 192.423 465 255.314C465 292.944 456.62 328.483 439.86 357.751C421.005 387.193 397.96 412.279 366.36 429.004C334.935 443.638 299.32 452 259.34 452C219.36 452 186.015 445.728 154.59 429.004C125.085 412.279 102.04 389.283 85.2801 359.841C68.52 330.574 60.1401 297.125 60.1401 257.404C60.1401 221.69 66.4252 190.332 78.9952 163.155C91.5652 135.978 110.42 110.891 135.56 85.8042L35 75.3514V48H196.49L211.155 62.634L209.06 213.328H181.825L169.255 112.982Z" fill="#161616"/>
</svg>
