<svg width="500" height="500" viewBox="0 0 500 500" fill="none" xmlns="http://www.w3.org/2000/svg">
<path d="M419.235 328.351C400.106 358.237 385.228 381.58 372.476 396.435C359.724 411.29 346.971 424.023 334.219 430.389C321.466 436.756 308.537 441 291.534 441C274.531 441 259.653 436.756 246.9 430.389C234.148 424.023 223.521 415.534 212.894 400.68C204.392 387.947 193.588 370.97 185.087 351.694C176.585 330.473 170.209 315.618 163.833 305.007C159.582 294.397 153.206 283.786 148.955 277.42C144.704 271.053 138.328 266.809 134.077 264.687C127.701 262.565 121.325 260.443 114.949 260.443C106.447 260.443 97.9455 262.565 91.5693 266.809C85.016 271.053 78.6397 277.42 70.1381 288.03C63.7619 298.641 53.135 319.862 36.1318 349.572L0 332.595C17.0032 300.763 29.7556 277.42 40.3825 262.565C53.1349 247.71 63.7619 237.099 76.5143 228.611C89.4438 222.244 104.322 220.122 121.325 220.122C136.203 220.122 148.955 222.244 159.582 228.611C170.209 232.855 178.711 243.466 189.338 256.198C197.839 271.053 208.643 290.152 219.27 315.618C227.772 336.839 236.273 353.993 242.65 366.726C251.151 379.458 257.527 385.825 266.029 392.191C272.405 396.435 283.032 400.68 293.659 400.68C304.286 400.68 315.09 396.435 323.592 390.069C332.093 383.703 340.595 373.092 351.222 360.359C359.724 347.45 370.351 330.473 383.103 307.129L402.232 273.175L308.537 285.908L302.161 260.443L446.865 218L463.868 228.611L500 370.97L474.495 379.458L438.363 294.397L419.058 328.351H419.235Z" fill="#161616"/>
</svg>
