<svg width="500" height="500" viewBox="0 0 500 500" fill="none" xmlns="http://www.w3.org/2000/svg">
<path d="M393.618 354.188C372.964 367.94 349.825 379.4 326.876 386.276C303.928 395.443 280.98 397.735 255.737 397.735C225.713 397.735 198.175 393.151 175.227 383.984C149.984 372.524 129.331 358.772 110.972 340.437C94.7171 322.101 80.9482 301.473 71.7689 278.363C62.5896 253.151 58 227.94 58 200.437C58 172.933 62.5896 145.43 76.3586 117.735C88.0239 90.4229 106.382 65.2115 131.817 40L173.124 69.7954C152.47 90.4229 136.406 113.342 124.932 136.453C113.458 161.664 108.869 184.584 108.869 207.503C108.869 225.839 111.163 246.467 118.048 262.51C124.932 280.846 136.406 297.081 150.175 310.832C161.649 324.584 177.713 333.752 198.367 342.92C216.725 349.795 237.57 354.379 260.518 354.379C281.171 354.379 301.825 349.795 322.478 342.92C340.837 336.044 359.386 326.876 375.45 315.416L276.582 271.678L288.056 244.175L428.231 287.722L442 308.54L405.283 460L373.155 452.933L393.809 354.379L393.618 354.188Z" fill="#161616"/>
</svg>
