<svg width="500" height="500" viewBox="0 0 500 500" fill="none" xmlns="http://www.w3.org/2000/svg">
<path d="M215.514 46.0039C321.009 46.6515 407.172 126.88 417.202 229.864C432.583 219.2 452.026 208.515 474.8 197.776L475.105 197.638C478.173 196.309 481.697 196.526 484.58 198.227L484.866 198.401L484.867 198.402L485.147 198.587C488.008 200.531 489.729 203.771 489.729 207.243V233.347C489.729 236.312 488.471 239.136 486.274 241.118L486.06 241.307C450.556 271.621 424.793 303.335 408.403 335.512L407.63 337.044C405.912 340.481 402.455 342.688 398.639 342.823L398.268 342.83H385.218C381.379 342.83 377.856 340.73 376.027 337.373L375.855 337.044C359.782 304.89 333.901 273.131 299.045 242.713L297.378 241.266C295.15 239.339 293.84 236.566 293.76 233.632L293.756 233.347V207.243C293.756 203.648 295.602 200.306 298.642 198.39V198.389L298.93 198.214C301.824 196.517 305.36 196.311 308.433 197.661L308.738 197.801V197.802L311.246 199.007C331.588 208.836 349.273 218.608 363.767 228.341C353.367 155.531 291.278 99.8157 216.109 98.8994L214.228 98.8877C131.119 98.8877 64.2046 165.165 63.1641 248.039L63.1514 250C63.1514 333.788 130.465 401.112 214.228 401.112C271.971 401.112 316.595 368.105 335.601 340.004L335.682 339.887L335.821 339.69L335.928 339.545C337.627 337.303 340.163 335.835 342.963 335.482H342.964L343.245 335.451C346.051 335.175 348.847 336.043 351.002 337.854L351.215 338.038L375.063 359.191L375.255 359.368L375.558 359.661L375.768 359.876C379.009 363.344 379.522 368.597 376.952 372.636L376.694 373.022C346.712 415.863 287.131 453.409 215.912 453.993L214.228 454C101.792 454 10.9823 363.607 10.2744 251.322L10.2705 250C10.2705 137.103 101.351 46 214.228 46L215.514 46.0039ZM375.705 245.451L375.682 244.692L375.706 245.451L375.67 244.319L375.705 245.451ZM375.506 240.737C375.498 240.598 375.49 240.459 375.481 240.319C375.49 240.459 375.498 240.598 375.506 240.737ZM375.428 239.453C375.426 239.428 375.425 239.402 375.423 239.377C375.42 239.329 375.417 239.281 375.414 239.232C375.408 239.141 375.402 239.049 375.396 238.957C375.407 239.122 375.417 239.288 375.428 239.453ZM375.351 238.309C375.366 238.525 375.381 238.741 375.396 238.957C375.397 238.983 375.4 239.009 375.401 239.035C375.382 238.749 375.362 238.463 375.342 238.177C375.345 238.221 375.347 238.265 375.351 238.309ZM375.254 237.025C375.274 237.282 375.293 237.539 375.312 237.796C375.313 237.806 375.315 237.817 375.315 237.827C375.292 237.509 375.268 237.191 375.242 236.874C375.246 236.924 375.25 236.975 375.254 237.025ZM375.207 236.448C375.213 236.517 375.219 236.585 375.225 236.653C375.189 236.214 375.152 235.775 375.112 235.337L375.207 236.448ZM195.849 89.4453C195.699 89.4621 195.549 89.4789 195.399 89.4961C195.549 89.4789 195.699 89.4621 195.849 89.4453Z" fill="black"/>
</svg>
