<svg width="500" height="500" viewBox="0 0 500 500" fill="none" xmlns="http://www.w3.org/2000/svg">
<path d="M468.949 205.269L500 219.614L440.287 370.437L418.591 380L270.303 334.375L277.468 303.294L380.374 322.421C366.043 286.558 351.712 257.868 334.992 236.35C320.661 212.442 301.354 195.706 279.857 183.752C258.36 171.798 234.475 167.016 205.812 167.016C177.15 167.016 150.677 174.189 129.18 188.534C105.295 202.879 88.5748 224.396 74.2436 253.086C62.3009 279.385 52.7468 312.857 50.3583 353.701L0 346.528C2.38854 300.903 11.9427 262.65 31.0509 226.787C47.9697 193.315 74.2436 167.016 105.295 147.69C136.346 128.563 172.174 119 210.589 119C263.137 119 306.33 135.736 339.769 164.625C375.597 195.706 401.871 241.132 423.368 303.294L468.949 205.269Z" fill="#161616"/>
</svg>
