<svg width="500" height="500" viewBox="0 0 500 500" fill="none" xmlns="http://www.w3.org/2000/svg">
<g clip-path="url(#clip0_7_80)">
<path d="M381.749 361.958C380.704 346.194 377.569 330.517 371.299 314.841C366.075 298.119 362.94 286.623 362.94 278.262C362.94 267.723 365.03 259.362 370.254 254.137C375.479 248.911 381.749 245.776 389.063 245.776C395.42 245.776 400.644 248.911 405.869 254.137C410.049 259.362 413.184 267.723 413.184 278.262C413.184 286.623 410.049 299.164 404.824 315.886C399.599 332.608 395.42 347.239 394.375 361.958C406.914 354.642 420.498 342.014 434.082 325.292C448.798 308.57 462.382 300.209 477.011 300.209C483.281 300.209 488.506 302.299 493.73 306.48C497.91 311.705 500 316.931 500 323.202C500 338.878 486.416 350.462 459.248 356.732C431.992 363.003 412.139 368.229 400.644 373.454C412.139 378.68 427.813 383.905 446.708 387.041C465.517 390.176 479.101 395.402 487.461 402.717C495.82 408.988 500 416.304 500 424.665C500 431.022 496.865 436.248 492.686 440.428C488.506 444.609 482.236 447.744 477.011 447.744C468.652 447.744 461.338 444.609 452.978 439.383C445.664 433.113 437.217 425.797 427.813 414.214C419.453 403.762 409.004 393.311 394.375 383.905C394.375 395.402 397.51 411.078 403.779 429.977C410.049 448.789 413.184 462.376 413.184 471.782C413.184 479.098 410.049 486.414 404.824 491.639C400.644 497.91 395.42 500 390.195 500C383.838 500 377.569 497.91 371.299 493.729C366.075 489.549 362.94 481.188 362.94 470.737C362.94 461.331 365.03 449.835 370.254 436.248L375.479 418.394C377.569 411.078 378.614 405.853 379.659 400.627C380.704 396.447 381.749 390.176 381.749 383.905C366.075 394.356 351.445 407.943 337.861 423.62C324.19 439.383 311.651 447.744 300.157 447.744C293.887 447.744 287.618 444.609 282.393 440.428C278.213 436.248 274.991 431.022 274.991 424.665C274.991 417.349 278.213 411.078 285.528 403.762C292.842 396.447 306.426 391.221 326.28 387.041C346.221 383.905 362.94 378.68 375.479 373.454C362.94 367.183 343.086 360.913 315.831 355.687C288.662 350.462 274.991 338.878 274.991 321.111C274.991 315.886 277.081 310.66 282.393 306.48C286.573 302.299 291.797 299.164 298.067 299.164C312.696 299.164 326.28 307.525 342.041 325.292C356.67 342.014 370.254 354.642 381.749 361.958ZM106.67 361.958C105.625 346.194 102.49 330.517 96.2208 314.841C90.9962 298.119 87.8614 286.623 87.8614 278.262C87.8614 267.723 89.9512 259.362 95.1759 254.137C100.401 248.911 106.67 245.776 114.072 245.776C120.341 245.776 125.566 248.911 130.791 254.137C134.97 259.362 138.105 267.723 138.105 278.262C138.105 286.623 134.97 299.164 129.746 315.886C124.521 332.608 120.341 347.239 119.296 361.958C131.836 354.642 145.42 342.014 159.004 325.292C173.72 308.57 187.304 300.209 200.888 300.209C208.203 300.209 213.427 302.299 218.652 306.48C222.919 311.705 225.009 316.931 225.009 323.202C225.009 338.878 211.338 350.462 184.169 356.732C156.914 363.003 137.06 368.229 125.566 373.454C137.06 378.68 151.689 383.905 171.63 387.041C190.439 390.176 204.023 395.402 212.382 402.717C220.742 408.988 223.964 416.304 223.964 424.665C223.964 431.022 221.874 436.248 217.607 440.428C212.382 444.609 207.158 447.744 200.888 447.744C193.574 447.744 186.259 444.609 177.9 439.383C169.54 433.113 162.139 425.797 152.734 414.214C144.375 403.762 133.925 393.311 119.296 383.905C119.296 395.402 122.431 411.078 128.701 429.977C134.97 448.789 138.105 462.376 138.105 471.782C138.105 479.098 134.97 486.414 129.746 491.639C125.566 497.91 120.341 500 115.117 500C108.76 500 102.49 497.91 96.2208 493.729C90.9962 489.549 87.8614 481.188 87.8614 470.737C87.8614 461.331 89.9512 449.835 95.1759 436.248L100.401 418.394C102.49 411.078 103.535 405.853 104.58 400.627C105.625 396.447 106.67 390.176 106.67 383.905C90.9962 394.356 76.3671 407.943 62.783 423.62C49.1118 439.383 36.5726 447.744 25.0784 447.744C18.8088 447.744 12.5392 444.609 7.31452 440.428C2.08986 436.248 0 431.022 0 424.665C0 417.349 3.1348 411.078 10.4493 403.762C17.7638 396.447 31.348 391.221 51.2017 387.041C71.1425 383.905 87.8614 378.68 99.3556 373.454C87.8614 367.183 68.0077 360.913 40.7524 355.687C13.5841 350.462 0 338.878 0 321.111C0 315.886 2.08986 310.66 7.31452 306.48C11.4943 302.299 16.7189 299.164 22.9885 299.164C36.5726 299.164 51.2017 307.525 66.9627 325.292C81.5918 342.014 95.1759 354.642 106.67 361.958ZM244.775 115.05C243.73 100.418 240.596 84.7413 234.326 68.0195C228.056 52.3428 225.967 39.7143 225.967 32.3985C225.967 21.9474 228.056 13.5865 233.281 8.36091C237.461 2.09023 243.73 0 252.09 0C258.359 0 263.584 2.09023 267.764 7.3158C272.989 13.5865 275.078 20.9023 275.078 31.3534C275.078 40.7594 272.989 53.3879 266.719 70.1097C261.494 85.7864 258.359 101.463 257.315 115.05C269.854 107.734 283.525 95.1925 297.109 78.4706C310.693 61.7488 325.322 53.3879 338.993 53.3879C345.263 53.3879 351.533 55.4781 355.712 60.7037C360.937 64.8842 363.027 70.1097 363.027 76.3804C363.027 93.1022 349.443 103.553 321.142 109.824C293.974 116.095 274.033 122.453 262.539 126.633C274.033 132.904 289.794 137.084 308.603 141.265C328.457 144.4 342.128 149.625 350.488 155.896C357.802 163.212 361.982 170.528 361.982 177.844C361.982 184.114 359.892 189.34 354.667 194.565C350.488 198.833 345.263 200.923 338.993 200.923C331.592 200.923 323.232 197.701 315.918 192.475C307.558 187.25 299.199 178.889 290.839 168.438C282.48 157.986 270.899 147.535 257.315 137.084C257.315 149.625 260.449 164.257 265.674 183.069C271.944 203.013 275.078 216.6 275.078 224.961C275.078 233.322 272.989 239.592 267.764 245.863C262.539 251.089 257.315 254.224 252.09 254.224C245.82 254.224 240.596 252.134 234.326 246.908C228.056 242.728 224.922 235.412 224.922 224.961C224.922 215.555 228.056 203.013 232.236 189.34L238.506 171.573C240.596 165.302 241.641 159.032 242.685 154.851C242.685 149.626 243.73 144.4 244.775 137.084C229.101 148.58 214.385 161.122 200.801 177.844C187.217 193.52 174.678 200.923 163.096 200.923C155.782 200.923 150.557 198.833 145.333 193.52C140.108 189.34 138.018 184.114 138.018 177.844C138.018 171.573 141.153 164.257 148.467 156.941C154.737 150.671 168.408 145.445 189.307 141.265C209.161 137.084 224.922 132.904 237.461 126.633C224.922 120.275 204.981 115.05 177.813 109.824C151.602 104.598 138.018 93.1022 138.018 75.3353C138.018 70.1097 140.108 64.8842 144.288 59.6586C149.512 55.4781 154.737 53.3879 159.962 53.3879C174.678 53.3879 189.307 61.7488 203.936 78.4706C218.565 96.2376 232.236 107.734 244.775 115.05Z" fill="#4169E1"/>
</g>
<defs>
<clipPath id="clip0_7_80">
<rect width="500" height="500" fill="white"/>
</clipPath>
</defs>
</svg>
